<?xml version="1.0" encoding="UTF-8"?>
<svg id="Layer_1" data-name="Layer 1" xmlns="http://www.w3.org/2000/svg" viewBox="0 0 208 47">
  <defs>
    <style>
      .cls-1 {
        fill: #2758a7;
      }
    </style>
  </defs>
  <g>
    <path d="M109,5.79v15.38h-3.09v-10.01l-4.12,10.01h-2.34l-4.14-10.01v10.01h-3.09V5.79h3.5l4.89,11.44,4.89-11.44h3.48Z"/>
    <path d="M123.3,16h-8.93c.07.88.38,1.57.93,2.07.54.5,1.21.75,2.01.75,1.15,0,1.96-.49,2.45-1.48h3.33c-.35,1.18-1.03,2.14-2.03,2.9-1,.76-2.23,1.13-3.68,1.13-1.18,0-2.23-.26-3.16-.78-.93-.52-1.66-1.26-2.18-2.21-.52-.95-.78-2.06-.78-3.31s.26-2.37.77-3.33c.51-.95,1.23-1.69,2.16-2.2.93-.51,1.99-.77,3.2-.77s2.2.25,3.12.75c.92.5,1.63,1.21,2.14,2.13.51.92.76,1.97.76,3.16,0,.44-.03.84-.09,1.19ZM120.19,13.93c-.01-.79-.3-1.43-.86-1.91-.56-.48-1.24-.72-2.05-.72-.76,0-1.41.23-1.93.69-.52.46-.84,1.11-.96,1.93h5.8Z"/>
    <path d="M125.58,11.74c.49-.95,1.16-1.69,2.02-2.2.85-.51,1.8-.77,2.84-.77.79,0,1.55.17,2.27.52.72.35,1.29.8,1.72,1.38v-4.87h3.13v15.38h-3.13v-1.81c-.38.6-.92,1.09-1.61,1.45-.69.37-1.49.55-2.4.55-1.03,0-1.97-.26-2.82-.79-.85-.53-1.52-1.27-2.02-2.24-.49-.96-.74-2.07-.74-3.32s.25-2.33.74-3.28ZM134.01,13.14c-.29-.54-.69-.95-1.19-1.23s-1.04-.43-1.61-.43-1.1.14-1.59.42c-.49.28-.88.69-1.18,1.22-.3.54-.45,1.17-.45,1.91s.15,1.38.45,1.93.7.97,1.19,1.27c.49.29,1.02.44,1.58.44s1.11-.14,1.61-.43c.5-.29.9-.7,1.19-1.23.29-.54.44-1.18.44-1.93s-.15-1.39-.44-1.93Z"/>
    <path d="M103.09,34.42c.56.71.84,1.51.84,2.42,0,.82-.2,1.55-.61,2.17-.4.62-.99,1.11-1.75,1.47-.76.35-1.67.53-2.71.53h-6.63v-15.38h6.35c1.04,0,1.94.17,2.7.51.76.34,1.33.81,1.72,1.41.39.6.58,1.29.58,2.05,0,.9-.24,1.65-.72,2.25-.48.6-1.11,1.03-1.91,1.28.87.16,1.58.6,2.14,1.3ZM95.31,31.97h2.82c.73,0,1.3-.17,1.7-.5s.59-.8.59-1.42-.2-1.09-.59-1.43c-.4-.34-.96-.51-1.7-.51h-2.82v3.86ZM100.17,37.97c.42-.35.63-.85.63-1.5s-.22-1.18-.66-1.55c-.44-.37-1.04-.56-1.79-.56h-3.04v4.14h3.11c.75,0,1.33-.18,1.75-.53Z"/>
    <path d="M111.03,29.17c.64-.37,1.37-.55,2.19-.55v3.24h-.82c-.97,0-1.7.23-2.19.68-.49.46-.74,1.25-.74,2.38v6.08h-3.09v-12.21h3.09v1.9c.4-.65.91-1.15,1.55-1.52Z"/>
    <path d="M115.24,31.58c.49-.95,1.16-1.69,2.01-2.2.84-.51,1.79-.77,2.83-.77.91,0,1.71.18,2.39.55s1.23.83,1.64,1.39v-1.74h3.11v12.21h-3.11v-1.79c-.4.57-.94,1.05-1.64,1.42s-1.5.56-2.41.56c-1.03,0-1.97-.26-2.81-.79s-1.51-1.27-2.01-2.24c-.49-.96-.74-2.07-.74-3.32s.25-2.33.74-3.28ZM123.67,32.98c-.29-.54-.69-.95-1.19-1.23s-1.04-.43-1.61-.43-1.1.14-1.59.42c-.49.28-.88.69-1.18,1.22-.3.54-.45,1.17-.45,1.91s.15,1.38.45,1.93.7.97,1.19,1.27c.49.29,1.02.44,1.58.44s1.11-.14,1.61-.43c.5-.29.9-.7,1.19-1.23.29-.54.44-1.18.44-1.93s-.15-1.39-.44-1.93Z"/>
    <path d="M140.53,30c.9.92,1.34,2.2,1.34,3.85v7.16h-3.09v-6.74c0-.97-.24-1.72-.73-2.24-.49-.52-1.15-.78-1.98-.78s-1.52.26-2.02.78-.74,1.27-.74,2.24v6.74h-3.09v-12.21h3.09v1.52c.41-.53.94-.94,1.58-1.25.64-.3,1.34-.45,2.1-.45,1.45,0,2.63.46,3.53,1.38Z"/>
    <path d="M144.75,31.58c.49-.95,1.16-1.69,2.02-2.2.85-.51,1.8-.77,2.84-.77.79,0,1.55.17,2.27.52.72.35,1.29.8,1.72,1.38v-4.87h3.13v15.38h-3.13v-1.81c-.38.6-.92,1.09-1.61,1.45-.69.37-1.49.55-2.4.55-1.03,0-1.97-.26-2.82-.79-.85-.53-1.52-1.27-2.02-2.24-.49-.96-.74-2.07-.74-3.32s.25-2.33.74-3.28ZM153.18,32.98c-.29-.54-.69-.95-1.19-1.23s-1.04-.43-1.61-.43-1.1.14-1.59.42c-.49.28-.88.69-1.18,1.22-.3.54-.45,1.17-.45,1.91s.15,1.38.45,1.93.7.97,1.19,1.27c.49.29,1.02.44,1.58.44s1.11-.14,1.61-.43c.5-.29.9-.7,1.19-1.23.29-.54.44-1.18.44-1.93s-.15-1.39-.44-1.93Z"/>
  </g>
  <g>
    <path class="cls-1" d="M66.13,10.08c0,.08-.04.18-.11.3,0,0,0,0,0,0-.11.19-.26.36-.43.5s-.39.34-.67.6c-.43.38-.95.87-1.56,1.46-.61.59-1.29,1.29-2.03,2.09-.74.8-1.5,1.67-2.29,2.63s-1.57,1.99-2.36,3.09c-.79,1.11-1.53,2.27-2.22,3.5-.69,1.22-1.32,2.5-1.89,3.82-.54,1.26-.97,2.56-1.31,3.89v-12.16c.34-.5.7-.98,1.08-1.43.94-1.1,1.93-2.09,2.98-2.94s2.11-1.6,3.19-2.24c1.08-.63,2.09-1.17,3.03-1.6.94-.44,1.76-.78,2.47-1.03.71-.25,1.22-.42,1.53-.52.21-.1.37-.13.45-.11.08.02.13.08.12.16Z"/>
    <path class="cls-1" d="M78.65,17.97c-.18.39-.39.77-.63,1.13-.55.81-1.22,1.5-2.03,2.06.48-.61.92-1.16,1.32-1.64.51-.61.92-1.1,1.26-1.46.03-.03.06-.06.08-.09Z"/>
    <path class="cls-1" d="M79.32,14.7c0,.64-.06,1.26-.19,1.84-.05-.08-.12-.16-.2-.24-.13-.11-.28-.18-.47-.2-.05,0-.12,0-.22.01-.09.01-.2.05-.32.11-.99.37-1.97.78-2.93,1.22-.96.44-1.91.93-2.84,1.46-.94.53-1.87,1.12-2.79,1.76-.92.63-1.85,1.34-2.77,2.1.48-.61.98-1.22,1.5-1.83.52-.62,1.05-1.22,1.58-1.8.53-.58,1.04-1.14,1.54-1.67.5-.53.96-1.02,1.39-1.45.43-.43.8-.81,1.12-1.12.32-.32.57-.55.73-.69.07-.09.1-.21.12-.35,0-.14-.02-.28-.07-.42-.06-.13-.14-.25-.25-.36-.11-.11-.25-.17-.43-.18-.08,0-.16-.01-.26-.01-.09,0-.2.04-.32.1-1.44.55-2.82,1.21-4.14,1.96-1.32.75-2.58,1.56-3.76,2.44-1.19.87-2.31,1.79-3.37,2.74s-2.04,1.91-2.96,2.85c-.92.95-1.77,1.87-2.54,2.77-.78.9-1.48,1.74-2.11,2.51.61-1.14,1.27-2.26,1.97-3.36.71-1.11,1.44-2.17,2.19-3.21.75-1.03,1.5-2.02,2.25-2.97.75-.95,1.47-1.83,2.16-2.64.69-.81,1.33-1.55,1.93-2.21.6-.66,1.12-1.22,1.56-1.69.41-.42.75-.79,1.03-1.13.28-.33.49-.58.65-.76v.03c.04-.11.03-.24-.04-.39-.06-.15-.17-.3-.32-.44-.15-.14-.33-.27-.55-.38,0,0,0,0,0,0-.37-.19-.8-.23-1.2-.16-.22.04-.48.09-.77.15-.55.12-1.17.28-1.87.5s-1.48.48-2.31.8c-.83.32-1.69.7-2.57,1.13s-1.76.93-2.65,1.48c-.89.55-1.75,1.18-2.56,1.86-.69.58-1.35,1.21-1.96,1.89V5.79h16.76c3.32,0,6.03.74,8.13,2.21s3.16,3.7,3.16,6.69Z"/>
    <path class="cls-1" d="M80.96,30.66c0,3.35-1.13,5.95-3.38,7.79-2.26,1.84-5.12,2.76-8.61,2.76h-17.71v-8.15c.08.25.2.44.33.57.13.14.26.21.4.22.14.02.22-.05.24-.18h0c.19-.57.45-1.13.76-1.65.67-1.12,1.39-2.2,2.16-3.23.97-1.3,1.98-2.52,3.03-3.67,1.04-1.15,2.11-2.22,3.19-3.22,1.08-1,2.14-1.91,3.18-2.74,1.03-.82,2.01-1.56,2.95-2.2.93-.64,1.77-1.18,2.53-1.63.75-.45,1.39-.79,1.9-1.02.52-.24.87-.37,1.07-.38-1.03.81-2.02,1.68-2.98,2.62-.96.94-1.87,1.89-2.72,2.86-.85.97-1.63,1.93-2.34,2.87-.71.95-1.31,1.83-1.82,2.64-.5.81-.89,1.53-1.18,2.16s-.41,1.11-.39,1.44c-.02.17.02.3.1.38.09.08.19.13.3.14.12.01.24,0,.37-.04.13-.03.25-.08.37-.14.12-.06.21-.12.3-.2.08-.08.14-.15.18-.22.03-.09.06-.2.1-.32.04-.12.07-.21.09-.27.41-.7.91-1.38,1.5-2.06.59-.68,1.24-1.33,1.94-1.96.69-.63,1.42-1.22,2.19-1.79.77-.57,1.52-1.1,2.27-1.58.75-.49,1.48-.93,2.17-1.33.69-.4,1.32-.73,1.89-1.02.57-.28,1.06-.5,1.45-.65.4-.16.67-.24.81-.24-1.01.8-1.97,1.72-2.9,2.76-.93,1.04-1.8,2.12-2.61,3.26-.81,1.14-1.55,2.29-2.21,3.47-.67,1.18-1.24,2.31-1.71,3.39-.47,1.09-.83,2.09-1.1,3.03-.26.93-.39,1.71-.38,2.34,0,.37.06.7.21.99.15.29.32.52.51.69.19.18.37.28.53.31.16.03.25-.03.26-.19.06-1.06.24-2.15.57-3.27.32-1.12.74-2.24,1.24-3.35.51-1.11,1.07-2.21,1.7-3.27.63-1.07,1.28-2.09,1.93-3.05.51-.74,1-1.44,1.5-2.09,3.85,1.33,5.78,4.14,5.78,8.44Z"/>
  </g>
</svg>