<?xml version="1.0" encoding="UTF-8"?>
<svg id="Layer_1" data-name="Layer 1" xmlns="http://www.w3.org/2000/svg" viewBox="0 0 256 256">
  <defs>
    <style>
      .cls-1 {
        fill: #2758a7;
      }
    </style>
  </defs>
  <g>
    <path d="M139.35,87.79v34.93h-7.01v-22.72l-9.36,22.72h-5.3l-9.41-22.72v22.72h-7.01v-34.93h7.96l11.11,25.97,11.11-25.97h7.91Z"/>
    <path d="M171.82,110.96h-20.27c.17,2,.87,3.57,2.1,4.7,1.23,1.13,2.75,1.7,4.55,1.7,2.6,0,4.45-1.12,5.56-3.35h7.56c-.8,2.67-2.34,4.86-4.6,6.58-2.27,1.72-5.05,2.58-8.36,2.58-2.67,0-5.06-.59-7.18-1.78-2.12-1.18-3.77-2.86-4.95-5.03-1.18-2.17-1.78-4.67-1.78-7.51s.58-5.39,1.75-7.56c1.17-2.17,2.8-3.84,4.9-5,2.1-1.17,4.52-1.75,7.26-1.75s4.99.57,7.08,1.7c2.08,1.13,3.7,2.74,4.85,4.83,1.15,2.09,1.73,4.48,1.73,7.18,0,1-.07,1.9-.2,2.7ZM164.77,106.26c-.03-1.8-.68-3.24-1.95-4.33-1.27-1.08-2.82-1.63-4.65-1.63-1.73,0-3.19.53-4.38,1.58-1.18,1.05-1.91,2.51-2.18,4.38h13.16Z"/>
    <path d="M177,101.3c1.12-2.17,2.64-3.84,4.58-5,1.93-1.17,4.09-1.75,6.46-1.75,1.8,0,3.52.39,5.15,1.18,1.64.78,2.93,1.83,3.9,3.13v-11.06h7.11v34.93h-7.11v-4.1c-.87,1.37-2.09,2.47-3.65,3.3-1.57.83-3.39,1.25-5.46,1.25-2.34,0-4.47-.6-6.4-1.8-1.94-1.2-3.46-2.89-4.58-5.08-1.12-2.18-1.68-4.7-1.68-7.53s.56-5.29,1.68-7.46ZM196.14,104.48c-.67-1.22-1.57-2.15-2.7-2.8s-2.35-.98-3.65-.98-2.5.32-3.6.95c-1.1.63-1.99,1.56-2.68,2.78-.68,1.22-1.03,2.66-1.03,4.33s.34,3.13,1.03,4.38,1.58,2.21,2.7,2.88c1.12.67,2.31,1,3.58,1s2.52-.33,3.65-.98c1.13-.65,2.03-1.58,2.7-2.8.67-1.22,1-2.68,1-4.38s-.33-3.16-1-4.38Z"/>
    <path d="M125.93,152.79c1.27,1.6,1.9,3.44,1.9,5.51,0,1.87-.46,3.51-1.38,4.93-.92,1.42-2.24,2.53-3.98,3.33-1.73.8-3.79,1.2-6.15,1.2h-15.06v-34.93h14.41c2.37,0,4.41.38,6.13,1.15,1.72.77,3.02,1.84,3.9,3.2.88,1.37,1.33,2.92,1.33,4.65,0,2.04-.54,3.74-1.63,5.1-1.08,1.37-2.53,2.34-4.33,2.9,1.97.37,3.59,1.35,4.85,2.95ZM108.27,147.24h6.41c1.67,0,2.95-.38,3.85-1.13s1.35-1.83,1.35-3.23-.45-2.49-1.35-3.25c-.9-.77-2.19-1.15-3.85-1.15h-6.41v8.76ZM119.3,160.85c.95-.8,1.43-1.93,1.43-3.4s-.5-2.68-1.5-3.53c-1-.85-2.35-1.28-4.05-1.28h-6.91v9.41h7.06c1.7,0,3.03-.4,3.98-1.2Z"/>
    <path d="M143.97,140.88c1.45-.83,3.11-1.25,4.98-1.25v7.36h-1.85c-2.2,0-3.86.52-4.98,1.55-1.12,1.03-1.68,2.84-1.68,5.4v13.81h-7.01v-27.72h7.01v4.3c.9-1.47,2.08-2.62,3.53-3.45Z"/>
    <path d="M153.53,146.34c1.12-2.17,2.64-3.84,4.55-5,1.92-1.17,4.06-1.75,6.43-1.75,2.07,0,3.88.42,5.43,1.25s2.79,1.88,3.73,3.15v-3.95h7.06v27.72h-7.06v-4.05c-.9,1.3-2.14,2.38-3.73,3.23-1.58.85-3.41,1.28-5.48,1.28-2.34,0-4.46-.6-6.38-1.8s-3.44-2.89-4.55-5.08c-1.12-2.18-1.68-4.7-1.68-7.53s.56-5.29,1.68-7.46ZM172.67,149.52c-.67-1.22-1.57-2.15-2.7-2.8s-2.35-.98-3.65-.98-2.5.32-3.6.95c-1.1.63-1.99,1.56-2.68,2.78-.68,1.22-1.03,2.66-1.03,4.33s.34,3.13,1.03,4.38,1.58,2.21,2.7,2.88c1.12.67,2.31,1,3.58,1s2.52-.33,3.65-.98c1.13-.65,2.03-1.58,2.7-2.8.67-1.22,1-2.68,1-4.38s-.33-3.16-1-4.38Z"/>
    <path d="M210.96,142.76c2.03,2.09,3.05,5,3.05,8.73v16.26h-7.01v-15.31c0-2.2-.55-3.89-1.65-5.08-1.1-1.18-2.6-1.78-4.5-1.78s-3.46.59-4.58,1.78-1.68,2.88-1.68,5.08v15.31h-7.01v-27.72h7.01v3.45c.93-1.2,2.13-2.14,3.58-2.83,1.45-.68,3.04-1.03,4.78-1.03,3.3,0,5.97,1.04,8.01,3.13Z"/>
    <path d="M220.54,146.34c1.12-2.17,2.64-3.84,4.58-5,1.93-1.17,4.09-1.75,6.46-1.75,1.8,0,3.52.39,5.15,1.18,1.64.78,2.93,1.83,3.9,3.13v-11.06h7.11v34.93h-7.11v-4.1c-.87,1.37-2.09,2.47-3.65,3.3-1.57.83-3.39,1.25-5.46,1.25-2.34,0-4.47-.6-6.4-1.8-1.94-1.2-3.46-2.89-4.58-5.08-1.12-2.18-1.68-4.7-1.68-7.53s.56-5.29,1.68-7.46ZM239.68,149.52c-.67-1.22-1.57-2.15-2.7-2.8s-2.35-.98-3.65-.98-2.5.32-3.6.95c-1.1.63-1.99,1.56-2.68,2.78-.68,1.22-1.03,2.66-1.03,4.33s.34,3.13,1.03,4.38,1.58,2.21,2.7,2.88c1.12.67,2.31,1,3.58,1s2.52-.33,3.65-.98c1.13-.65,2.03-1.58,2.7-2.8.67-1.22,1-2.68,1-4.38s-.33-3.16-1-4.38Z"/>
  </g>
  <g>
    <path class="cls-1" d="M42.01,97.53c0,.18-.09.41-.25.68,0,0,0,0,0,0-.26.43-.59.81-.97,1.14s-.89.78-1.53,1.36c-.97.86-2.15,1.97-3.53,3.31-1.38,1.35-2.92,2.92-4.61,4.74-1.69,1.81-3.42,3.8-5.2,5.97-1.79,2.17-3.57,4.51-5.36,7.02-1.79,2.51-3.47,5.17-5.05,7.94-1.58,2.78-3.01,5.67-4.28,8.67-1.22,2.87-2.21,5.82-2.97,8.83v-27.6c.77-1.14,1.59-2.22,2.46-3.25,2.13-2.51,4.38-4.74,6.76-6.69,2.38-1.95,4.79-3.64,7.25-5.08,2.46-1.43,4.76-2.65,6.89-3.64,2.13-.99,4-1.77,5.61-2.33,1.6-.56,2.77-.95,3.48-1.18.48-.22.83-.3,1.02-.25.19.05.29.17.28.36Z"/>
    <path class="cls-1" d="M70.45,115.43c-.4.89-.87,1.75-1.43,2.57-1.25,1.85-2.78,3.41-4.6,4.68,1.08-1.39,2.09-2.63,2.99-3.73,1.15-1.38,2.1-2.49,2.85-3.33.06-.07.13-.14.19-.2Z"/>
    <path class="cls-1" d="M71.95,108.01c0,1.46-.15,2.85-.44,4.17-.12-.19-.27-.37-.46-.54-.29-.26-.64-.4-1.06-.45-.11,0-.27,0-.49.03-.21.03-.46.11-.74.26-2.26.85-4.47,1.78-6.65,2.78-2.18,1-4.33,2.11-6.45,3.33-2.13,1.21-4.25,2.54-6.34,3.99-2.1,1.44-4.19,3.03-6.29,4.77,1.08-1.38,2.22-2.76,3.42-4.16,1.18-1.4,2.39-2.76,3.59-4.09,1.2-1.32,2.37-2.59,3.5-3.8,1.13-1.21,2.18-2.31,3.15-3.3.97-.98,1.82-1.84,2.54-2.55.73-.72,1.28-1.24,1.67-1.57.15-.21.24-.47.26-.79.02-.33-.04-.64-.16-.95-.13-.3-.32-.57-.57-.81-.26-.25-.57-.38-.97-.42-.17-.02-.37-.03-.58-.03-.21,0-.46.08-.74.23-3.28,1.26-6.41,2.74-9.41,4.45-3,1.7-5.85,3.55-8.55,5.54-2.71,1.98-5.26,4.05-7.65,6.22s-4.64,4.33-6.72,6.48c-2.09,2.15-4.01,4.25-5.77,6.3-1.77,2.04-3.36,3.94-4.8,5.69,1.38-2.58,2.88-5.13,4.48-7.63,1.61-2.51,3.26-4.94,4.97-7.28,1.7-2.34,3.41-4.59,5.11-6.74,1.71-2.15,3.34-4.15,4.91-5.99,1.57-1.85,3.02-3.52,4.38-5.01,1.36-1.49,2.54-2.77,3.55-3.84.94-.96,1.71-1.8,2.34-2.56.63-.75,1.12-1.32,1.47-1.73v.07c.09-.26.06-.56-.08-.89-.15-.35-.39-.67-.72-.99-.34-.33-.76-.62-1.26-.87,0,0,0,0-.01,0-.84-.43-1.81-.52-2.74-.36-.5.09-1.09.2-1.75.35-1.24.27-2.65.65-4.25,1.14s-3.35,1.09-5.25,1.82c-1.89.73-3.84,1.59-5.83,2.57s-4,2.1-6.02,3.36c-2.02,1.26-3.96,2.67-5.82,4.22-1.58,1.32-3.07,2.74-4.45,4.29v-24.92h38.05c7.53,0,13.68,1.68,18.47,5.03s7.17,8.41,7.17,15.19Z"/>
    <path class="cls-1" d="M75.69,144.26c0,7.61-2.57,13.5-7.68,17.68-5.13,4.17-11.63,6.27-19.54,6.27H8.26v-18.51c.19.57.45,1,.75,1.3.3.31.6.47.91.5.31.04.49-.11.55-.42h0c.44-1.31,1.02-2.56,1.73-3.74,1.52-2.54,3.15-4.99,4.91-7.34,2.2-2.94,4.5-5.72,6.87-8.33,2.37-2.61,4.79-5.05,7.25-7.32,2.46-2.28,4.86-4.35,7.22-6.21,2.34-1.87,4.57-3.53,6.7-4.99,2.11-1.46,4.03-2.69,5.74-3.7,1.7-1.01,3.15-1.79,4.32-2.32,1.18-.55,1.99-.83,2.43-.87-2.33,1.84-4.58,3.82-6.77,5.95-2.18,2.13-4.24,4.29-6.17,6.5-1.94,2.2-3.71,4.37-5.31,6.51-1.6,2.15-2.98,4.15-4.13,5.99-1.14,1.84-2.03,3.47-2.67,4.9s-.94,2.51-.89,3.27c-.04.38.04.67.23.86.2.19.43.3.69.32.26.03.55,0,.84-.08.3-.07.57-.18.83-.32.26-.13.48-.28.68-.46.19-.18.33-.35.41-.51.06-.21.14-.46.22-.72.08-.27.15-.48.21-.62.93-1.59,2.07-3.14,3.42-4.68,1.35-1.54,2.82-3.02,4.4-4.45,1.58-1.42,3.23-2.78,4.97-4.06,1.74-1.29,3.46-2.49,5.17-3.6,1.7-1.1,3.35-2.11,4.93-3.02,1.57-.9,3.01-1.67,4.3-2.31,1.29-.64,2.4-1.13,3.3-1.48.9-.36,1.51-.54,1.85-.56-2.29,1.82-4.48,3.9-6.6,6.26-2.12,2.35-4.09,4.82-5.93,7.41-1.84,2.58-3.52,5.21-5.02,7.89-1.51,2.68-2.81,5.25-3.88,7.71-1.07,2.47-1.89,4.76-2.49,6.87-.59,2.1-.87,3.88-.86,5.31-.02.84.15,1.59.48,2.26.34.67.72,1.18,1.15,1.58.43.4.83.63,1.2.7.36.07.57-.07.6-.44.13-2.41.56-4.88,1.3-7.42.74-2.55,1.69-5.08,2.82-7.62,1.15-2.52,2.43-5.01,3.86-7.43,1.44-2.43,2.9-4.74,4.38-6.92,1.15-1.68,2.28-3.26,3.4-4.75,8.75,3.02,13.13,9.41,13.13,19.16Z"/>
  </g>
</svg>